<?xml version="1.0" encoding="utf-8"?>
<!-- Generator: Adobe Illustrator 16.0.0, SVG Export Plug-In . SVG Version: 6.00 Build 0)  -->
<!DOCTYPE svg PUBLIC "-//W3C//DTD SVG 1.1//EN" "http://www.w3.org/Graphics/SVG/1.1/DTD/svg11.dtd">
<svg version="1.1" id="Layer_1" xmlns="http://www.w3.org/2000/svg" xmlns:xlink="http://www.w3.org/1999/xlink" x="0px" y="0px"
	 width="123.334px" height="60.167px" viewBox="47.5 0 123.334 60.167" enable-background="new 47.5 0 123.334 60.167"
	 xml:space="preserve">
<symbol  id="RSS" viewBox="-9.735 -9.748 19.47 19.497">
	<path fill="#F15A24" d="M2.997-9.748h-3.463c-0.045,2.47-1.023,4.782-2.765,6.525C-4.976-1.475-7.278-0.494-9.735-0.45v3.451
		C-2.757,2.908,2.903-2.759,2.997-9.748L2.997-9.748z"/>
	<path fill="#F15A24" d="M9.735-9.748H6.28C6.184-0.943-0.944,6.202-9.729,6.298v3.451C0.961,9.651,9.639,0.959,9.735-9.748
		L9.735-9.748z"/>
</symbol>
<rect x="48.855" y="19.7" fill="none" width="128.312" height="18.265"/>
<text transform="matrix(1 0 0 1 48.8555 34.3184)" fill="#F45500" font-family="'OCRAExtended'" font-size="22.5254">intel-hub</text>
<use xlink:href="#RSS"  width="19.47" height="19.497" id="XMLID_1_" x="-9.735" y="-9.748" transform="matrix(0.8334 -0.1581 -0.1581 -0.8334 58.1694 12.4712)" overflow="visible"/>
</svg>
